<svg xmlns="http://www.w3.org/2000/svg" width="25" height="15">
    <path fill-rule="evenodd" d="M17.205 9.861v.225c0 .696.214 1.26.642 1.694.427.433.986.649 1.675.649.511 0 .952-.11 1.324-.332.373-.222.628-.527.766-.916h3.309c-.179 1.167-.76 2.096-1.742 2.789-.983.692-2.219 1.039-3.708 1.039-1.821 0-3.248-.522-4.282-1.566-1.035-1.044-1.552-2.484-1.552-4.319 0-1.836.514-3.294 1.541-4.376 1.028-1.081 2.417-1.622 4.168-1.622 1.717 0 3.088.517 4.112 1.551 1.024 1.033 1.536 2.417 1.536 4.15v1.034h-7.789zm3.688-3.588c-.39-.378-.888-.568-1.495-.568-.586 0-1.079.195-1.479.584-.4.389-.624.887-.672 1.494h4.282c-.035-.628-.247-1.131-.636-1.51zM16.99.022h4.943v1.397H16.99V.022zm-5.633 8.017c.696.669 1.044 1.491 1.044 2.466 0 1.297-.472 2.33-1.417 3.101-.944.772-2.213 1.157-3.806 1.157H.01V-.006h6.982c1.469 0 2.622.33 3.46.988.837.658 1.256 1.557 1.256 2.697 0 .819-.279 1.528-.837 2.129-.559.6-1.256.958-2.09 1.074v.082c1.021.048 1.879.406 2.576 1.075zM7.473 3.09c-.355-.29-.85-.435-1.484-.435H3.806v3.357h1.996c.69 0 1.229-.151 1.619-.455.39-.304.584-.722.584-1.254 0-.518-.177-.923-.532-1.213zm.429 5.696c-.428-.328-1.034-.491-1.82-.491H3.806v3.807h2.296c.786 0 1.39-.165 1.81-.496.421-.331.631-.807.631-1.428 0-.601-.213-1.065-.641-1.392z"/>
</svg>
