<svg xmlns="http://www.w3.org/2000/svg" width="18" height="18">
    <path fill-rule="evenodd" d="M14.122 17.092v-6.84c0-.778-.192-1.377-.575-1.798-.383-.421-.925-.631-1.624-.631-.712 0-1.287.24-1.725.721-.438.481-.657 1.11-.657 1.888v6.66H6.569V5.415H9.44v2.09h.061c.658-1.506 1.859-2.259 3.603-2.259 1.242 0 2.218.385 2.927 1.156.709.771 1.063 1.838 1.063 3.203v7.487h-2.972zM2.495 4.143c-.441 0-.818-.156-1.13-.467A1.567 1.567 0 0 1 .897 2.52c0-.459.156-.843.468-1.151a1.553 1.553 0 0 1 1.13-.461c.448 0 .828.154 1.14.461.312.308.469.692.469 1.151 0 .46-.157.845-.469 1.156a1.554 1.554 0 0 1-1.14.467zm1.486 12.949H1.009V5.415h2.972v11.677z"/>
</svg>
