<svg xmlns="http://www.w3.org/2000/svg" width="19" height="16">
    <path fill="#FFF" fill-rule="evenodd" d="M18.759 2.499a7.482 7.482 0 0 1-2.121.573 3.662 3.662 0 0 0 1.624-2.012 7.46 7.46 0 0 1-2.345.882A3.716 3.716 0 0 0 13.221.794c-2.039 0-3.693 1.628-3.693 3.636 0 .285.033.563.096.829A10.546 10.546 0 0 1 2.012 1.46a3.583 3.583 0 0 0-.5 1.828 3.62 3.62 0 0 0 1.643 3.026 3.71 3.71 0 0 1-1.672-.455l-.001.046c0 1.762 1.273 3.232 2.962 3.566a3.755 3.755 0 0 1-1.667.062 3.69 3.69 0 0 0 3.449 2.526 7.483 7.483 0 0 1-4.586 1.557c-.298 0-.592-.018-.881-.051a10.581 10.581 0 0 0 5.661 1.634c6.792 0 10.507-5.542 10.507-10.347 0-.158-.003-.315-.01-.471a7.453 7.453 0 0 0 1.842-1.882z"/>
</svg>
