<svg xmlns="http://www.w3.org/2000/svg" width="38" height="33">
    <path fill="#FFF" fill-rule="evenodd" d="M37.493 10.521l-4.328 7.717a1.747 1.747 0 0 1-1.761.828 1.742 1.742 0 0 1-1.319-.175l-4.763-2.75a1.748 1.748 0 1 1 1.749-3.031l1.818 1.049C27.893 8.253 22.768 3.75 16.578 3.75c-6.903 0-12.5 5.597-12.5 12.5 0 6.904 5.597 12.5 12.5 12.5.169 0 .333-.019.5-.025v.076c.843.126 1.5.821 1.5 1.699 0 .878-.657 1.574-1.5 1.699v.026a3.024 3.024 0 0 0-.166.008c-.03.002-.054.017-.084.017-.018 0-.032-.01-.05-.01-.066.004-.132.01-.2.01-8.836 0-16-7.163-16-16s7.164-16 16-16c7.655 0 14.045 5.379 15.62 12.561l2.293-4.09a1.75 1.75 0 0 1 3.002 1.8z"/>
</svg>
